<?xml version="1.0" encoding="UTF-8"?>
<svg version="1.1" viewBox="0 0 2000 2000" width="1280" height="1280" xmlns="http://www.w3.org/2000/svg">
<path transform="translate(602,520)" d="m0 0h37l6 4 3 4 2 9v21l-3 8-5 5-9 2h-24l-16 1-13 3-10 5-9 7-7 9-8 16-2 10-1 91h921l-1-91-5-17-7-13-8-8-13-8-10-3-7-1-39-1-7-3-5-5-2-4v-30l4-6 5-4 5-1h36l20 2 12 3 17 8 18 12 7 6 7 8 9 12 8 15 6 16 3 16 1 16v769l-3 20-6 18-7 14-11 14-9 10-12 12-17 12-16 7-17 5-12 2-12 1-76 1-716-1-19-3-16-5-16-8-11-8-16-15-11-13-10-14-7-14-5-17-3-18v-769l2-22 5-19 9-19 11-16 14-14 20-13 11-5 15-4 7-1zm-58 249-1 1v632l3 14 7 14 9 12 8 8 10 6 18 6 11 2 348 1h87l353-1 17-3 15-5 13-9 7-7 7-11 6-16 2-9v-634l-1-1z" fill="#EC397D"/>
<path transform="translate(849,838)" d="m0 0h30l30 5 20 6 16 8 12 7 8 6 12 8 11 9 7 8 8 9h2l7-8 8-9 11-9 20-14 23-12 23-8 26-5 8-1h28l28 4 17 5 23 11 15 9 16 11 13 12 11 12 10 15 14 25 8 17 5 15 4 17 2 16 1 21-2 20-3 17-6 21-7 19-7 13-7 11-9 17-6 10-9 13-14 17-11 12-9 10-10 9-3 4h-2v2h-2v2l-5 5-9 11-23 23-8 7-10 9-14 11-10 8-15 14-10 9-12 9-18 14-13 10-19 13-30 20-10 5-6 2h-9l-17-9-15-10-10-6-17-12-19-14-16-13-13-10-10-9-8-7-5-5-20-16-10-9-12-11-17-16-16-16-9-11-7-8-8-7-11-12-11-14-15-20-14-21-10-18-11-25-8-26-4-21-1-8v-33l3-21 4-16 4-12 11-24 10-19 11-14 11-13 10-10 31-20 15-8 16-6 23-5zm-3 54-18 4-16 6-16 9-14 12-14 14-9 12-10 13-8 27-3 16-1 11v17l3 19 6 20 8 18 9 17 10 15 10 12 12 17 12 14 14 15 18 18 6 4 17 1 22-2 27-6 26-9 23-12 20-12 12-8 17-12 14-10 17-11 14-11 24-16 21-12 29-13 22-7 19-4 16-2h38l18 3 18 5 6 2 4-12 3-22v-13l-3-22-4-15-6-15-7-12-14-19-17-17-14-11-17-9-17-5-13-2h-30l-18 4-19 7-21 11-14 10-9 10-5 5-7 12-6 7-4 3-6 11-7 10-7 8-2 1h-6l-6-5-13-21-10-14-13-17-10-11-13-10-18-10-17-6-16-4-7-1zm352 219-20 2-23 6-27 9-16 10-22 13-19 13-13 10-12 9-12 10-12 8-10 6-25 13-19 10-19 9-30 10-8 2-10 1-3 3 9 9 14 10 12 10 12 8 12 9 12 10 14 10 17 12 2 2 4-1 16-11 17-13 10-9 16-11 9-6 13-10 11-9 10-9 11-9 24-24 16-14 11-9 18-18 7-8 11-12 14-19 11-14 6-8 1-4-7-3-21-3z" fill="#EC397D"/>
<path transform="translate(1477,1075)" d="m0 0 1 3 1 9 2 4 4 5 1 6v8l2 7v5l2 4-1 5-1 7 3 10v4l1 4-2 6h2l3 4-1 2h-1v6l-4 2 2 6v2l5-2v5l-3 3v2l3 2v3l-4 1 3 4 2-1v-8l5-5 1-4 4-2-2-9-2-1 1-2-3-1-1-8-1-2h2l1-5h2v-4l5-1v2h2l-2-8v-5l1 2 3 1 2 3h2l-1 4 2 4v251l-3 20-6 18-7 14-11 14-9 10-12 12-17 12-16 7-17 5-12 2-12 1-76 1-716-1-19-3-16-5-16-8-11-8-16-15-11-13-1-7 3 1 1-4-6-2 3-1-1-3-3-2-1-3-2-2h2v-6l-3-4v-2l-2-1-1-4-3-7-3-10v-9l-2-4 2-4v-2l-3-1v-5l1-2v-14-2-4l2-4v-15l1-25 1-7 1-6v-4-9-4-9l1-5-1-7 1-5v-5l3 1 1 4v31l-2 22 2-3 3-1 1-1v-3h-2v-5h2l-2-4 2-3 2 1v-7h-3v-2h2l1-6 3 1 1-2h-3l-1-2-4-2 6-2 1-2 3-2-2-5-1-3 5-2 1-2h2l-1-6h2v-2h-2l-2-4 1-4 7-3-1-2-3 3-3-3 3-12h2l-1-4 1-2-7-2 3-1v-8l2-2v2l2 1 1 1 1-6 3 1v-14h-2l-1-3-5-4-1-5 3-3 2 2 3-3h2l-1-2v-13l2-3-1-5-6 1-3 2 2 1h-3l-2-8 4-1 2 1 2-4h2l2-8-2-1h2l-1-6h-6v3h-2l1 3h-2l-2-7 2-6h-2v-2l3 1v5h2l1-2 5-2 1 2 3-3h3v-2l-4 1 1-3h-2v-2l5-2 2 3 2 6-2 3h2v11l-2 1 1 1h1l1 253 2 18 5 14 9 14 9 10 10 7 16 6 15 3 348 1h87l353-1 17-3 15-5 13-9 9-10 6-12 5-15 2-10 1-220 2 2v6l2 1 1-7 3 1-2-7h2l1-2v-6l-1-5v-6h2v-6l-2-5-1-7h-2v-3l-5 1v-26l5-2 2-2 1 1v9l2-6 1-6 1-5-1-4 2-7h-3v-9z" fill="#DE2D6E"/>
<path transform="translate(1254,429)" d="m0 0h27l12 3 14 7 13 10 13 13 9 17 3 12 1 7 1 28-1 75-3 16-6 12-10 14-12 12-14 8-13 6-9 2h-23l-16-4-17-9-10-9-7-9-10-15-4-10-2-11-1-14v-80l1-15 4-15 8-16 11-14 9-8 14-8 13-4zm7 53-9 4-8 7-3 7-1 6v88l3 10 7 9 10 5 3 1h10l10-4 6-5 3-6 1-4 1-96-3-10-4-6-9-5-4-1z" fill="#EC397D"/>
<path transform="translate(727,429)" d="m0 0h25l16 4 10 4 9 7 18 18 8 14 5 15 1 5 1 15v76l-1 16-3 12-8 16-8 11-14 15-14 8-15 5-5 1h-24l-13-3-16-9-11-9-8-8-12-19-4-13-1-7-1-21v-52l1-30 3-17 6-16 7-9 11-11 15-10 12-6zm7 53-9 4-7 5-4 8v97l3 10 5 6 8 5 3 1h15l9-4 7-7 4-9v-98l-5-8-9-8-6-2z" fill="#EC397D"/>
<path transform="translate(843,521)" d="m0 0h321l6 3 4 6 1 7v19l-2 9-4 5-4 2-8 1h-312l-6-3-5-6-1-4v-29l3-5z" fill="#EC397D"/>
<path transform="translate(585,757)" d="m0 0 7 2h116l1-2 3 1 7 1 1-2 7 1 4-1 1 1 7 1 1-2v2l9-1 1 1 8-1 7 1h59l27 1 2-1 6 1h259l9-1 28 1h15l5 1 5-1h6l4 2 1-2 10 3 2-2h17l8-1 7 1h2l9-1 10 1 7-1h29l4-1 27 1h80v2l6-1 4 1 2-2 6 1 1-2v3l5 3 1 3-874 1v-3l6-1v-2h5l5-3 3-1h12z" fill="#DE2D6E"/>
<path transform="translate(1117,1310)" d="m0 0h3l-1 6-2-1-1 2h2l-2 4-13 10-18 14-13 10-19 13-30 20-10 5-6 2h-9l-6-3-3-4v-2l3 1v2h2l1-3 1 3 1-3-8-5 1-5-7 1-3-2v-2l-4 1 1-9-2-8 7-2 5 1 5-2h4l1-3 1 4h-2v2l5 2 1 5h11l4-4 4-1v2l5 1 5-2 1-2 4-1 2-2v2h2l5-6 2-1 3-2h3l1-5 5-5 6-3 8 1 1-4h2l2-4 6-4h2v-2l6-3v2h3v4l-4 1 1 2 11-6 2-3h2v-2z" fill="#DE2D6E"/>
<path transform="translate(1209,1156)" d="m0 0 3 1-3 5v7l-4 2v2l-3 1-1 3-4 2-2 3h-2v3l-4 1v3l-4 1v3l-7 2v5l-6 2-1 3h-2l-1 4h-3l-1 4-1-2h-2v3l-4-1v2l-5 2-5 6-4 4-1 2h-3v2l-4 1-1 5-5 4h-2v2l-5 5-4 5-4 4h-2v4l-4 1v3l-2 1-1 3-11 2v2h-2v4h-3v4l-4 1-2 2v-2l-6 3h-2l-2 8h-2v2l-3 2h-4l-1 2-1-1-1 2h3v2h-7l1 4-6-2-5 2-2 2-1 4 2 1h-5v5h-2v3l-7 1-4-1-1 4h-2l1 4-5 1v4l-3-1v-2l-6 1 1 5-8-1 2-4 11-7 21-16 10-9 16-11 9-6 13-10 11-9 10-9 11-9 24-24 16-14 11-9 17-17 7-8 11-12z" fill="#DF2E6F"/>
<path transform="translate(898,1257)" d="m0 0 4 1 8 7 11 8 12 10 12 8 12 9 12 10 14 10 17 12 2 4-3 3h-2l-1-6-1 3h-6l-5-2v-2h-5l-1-5 1-2-5-1 1-2-9-1v-2l-5-1-2-4-1-3 2-1-6-2v-2l-2 1-2 4-3-1v-3l-4-2-3-2-4 1-2-3h-3l2-1v-2h-2v-2h-2v-2h-2v-2l-4-1v-2l-3-1v-3l-4-1 2-1-4-3v-2l-4-2-3-3 1-4-7-1-2-3z" fill="#DF2D6F"/>
<path transform="translate(894,1319)" d="m0 0 4 2 4 3v2l5 1 1 2 5 2 1 2h2v3h3l-2-4 4-1 2 1v2l5 2 5 3-1 2-3 1v2l3 1 4 5 5 1v3l-2 1 3 2 1-3 6 5 1-3 3 2v4l2 1v2l5 1 6 3 3-1v7l4 2 1 3-5-2-13-8-17-12-19-14-16-13-12-9v-2z" fill="#DF2E70"/>
<path transform="translate(1188,1101)" d="m0 0h6l3 2h8l6-1 1 1h7v4l2 1-1 2 5-1 3 1 4 1v2h-12l-10-1h-12l-20 2-5 1h-7l1-4 1-2 11-6h6z" fill="#DF2D6F"/>
<path transform="translate(1516,1097)" d="m0 0h1v33l-3 1 1 5-1 2h-3l-2-4-5-2 1-2 5 1-2-7 1-2h-2l-2-2-3-1v-10l3-6h2v-3l9-1z" fill="#DE2D6E"/>
<path transform="translate(491,1157)" d="m0 0h1l1 50v136l-1 9-2 2v-79z" fill="#DE2D6E"/>
<path transform="translate(542,1121)" d="m0 0h1v270h-1l-1-252-2 1 1-5h1l1-10h-2l-1 3 1-5z" fill="#ED3A7E"/>
<path transform="translate(1516,868)" d="m0 0h1l1 119v78l-2 3h-2v-4h2l-1-21z" fill="#DE2D6E"/>
<path transform="translate(1158,1278)" d="m0 0 5 1-1 3-16 12-10 9-5 2-3-3 1-2 2-3 1-3h4v-2h3l2-5 8-7z" fill="#E02E70"/>
<path transform="translate(935,1235)" d="m0 0 4 1-2 5 3-2h6l1-3 2 1v3l-30 10h-7l3-2 2-5h2v-2l6-3h5l1 1 2-3z" fill="#DF2E6F"/>
<path transform="translate(1117,1310)" d="m0 0h3l-1 6-2-1-1 2h2l-2 4-13 10-7 5h-4l1-3 2-1 1-3 1 3h2l-1-4h2l1-4 4-5h2v-2z" fill="#DF2E6F"/>
<path transform="translate(1238,512)" d="m0 0h1l1 85-3 1-2-4 1-1v-31z" fill="#DE2D6E"/>
<path transform="translate(972,569)" d="m0 0 9 1h57l14 1v1h-111l2-2h26z" fill="#DE2D6E"/>
<path transform="translate(987,1211)" d="m0 0 4 1-6 5h-2v3h-3l-1 2-5 1-3 3-3-1v-2h-2l2-4 11-5h5l3-1z" fill="#DE2D6E"/>
<path transform="translate(503,1216)" d="m0 0h2l1 7-1 2 2 1-1 4 4 3v2l-2 1-3 6-1 9h-1l-1-7v-6l-1-2h2l1-3-2-13z" fill="#DE2D6E"/>
<path transform="translate(624,567)" d="m0 0 10 1-1 2 2 2-2 1h-14l-11-1 4-2h3z" fill="#E02F70"/>
<path transform="translate(1225,1136)" d="m0 0h3l-2 5h-2l-1 6h-2l-1 5-5 1v2h-3l1-4 11-14z" fill="#DF2E70"/>
<path transform="translate(826,1186)" d="m0 0 4 2 9 9 6 4v2l-3 1v-3l-4 2v-2h-2v-3h-3l-1-4h-3l-3-6z" fill="#E02F71"/>
<path transform="translate(1159,1208)" d="m0 0 2 1-2 4-2 1-3 2-6 5-5 6-1 2h-3v2l-5 1 6-7 13-12z" fill="#E13071"/>
<path transform="translate(1122,1296)" d="m0 0 3 1-1 5-8 6-3 1v-3l1-4 3-1z" fill="#DE2D6E"/>
<path transform="translate(1167,564)" d="m0 0h2l1 5-5 3h-6v-5l6-2z" fill="#DE2D6E"/>
<path transform="translate(1133,1232)" d="m0 0h2l-1 5-5 4h-2v2l-4 3-3-1 12-12z" fill="#E02F70"/>
<path transform="translate(775,1125)" d="m0 0 6 5 7 10v2l-4-2-4-5v-2h-2v-3h-2v-2l-2-1z" fill="#DF2E70"/>
<path transform="translate(1465,1075)" d="m0 0 2 3 1 14-1 4v12h-2z" fill="#DE2D6E"/>
<path transform="translate(1467,1115)" d="m0 0 4 3v2l3 1v5l-3-1-2 3-2-1z" fill="#EC397D"/>
<path transform="translate(1516,1181)" d="m0 0h2v12l-3-1-4-8z" fill="#ED3A7E"/>
<path transform="translate(1100,1326)" d="m0 0 4 2-2 4-7 4h-3l1-3 2-1 1-3 1 3h2l-1-4h2z" fill="#ED3A7E"/>
<path transform="translate(842,1277)" d="m0 0h3v2l4 1 1 3h2l2 5-5-3-7-6z" fill="#E12F71"/>
<path transform="translate(985,1218)" d="m0 0 3 1-2 3-10 5-3-1 5-4h2v-2h5z" fill="#E53376"/>
<path transform="translate(765,1111)" d="m0 0h2l7 11 1 3h-3v-3h-2l-2-5h-2z" fill="#E13072"/>
<path transform="translate(1159,1208)" d="m0 0 2 1-2 4-2 1-3 2-3 3-3-1 7-7z" fill="#E43274"/>
<path transform="translate(521,1162)" d="m0 0 5 1v3h-2l-1 5-3-1z" fill="#DE2D6E"/>
<path transform="translate(902,1247)" d="m0 0h4l1 4-2 1h-6l1-4z" fill="#DE2D6E"/>
<path transform="translate(926,1189)" d="m0 0h3v2h-4l-1 3h-5l-4 1 2-3z" fill="#E23072"/>
<path transform="translate(1475,1125)" d="m0 0 2 4-2 5-3 1v-6l1-2h2z" fill="#EC397D"/>
<path transform="translate(1496,1195)" d="m0 0 2 1-1 2 2 1h-2l1 3h-4l-2-4 4-1z" fill="#ED3A7E"/>
<path transform="translate(1165,567)" d="m0 0 5 1-3 3-7 1 2-4z" fill="#EC397D"/>
</svg>